<?xml version="1.0" encoding="UTF-8"?>
<svg xmlns="http://www.w3.org/2000/svg" xmlns:xlink="http://www.w3.org/1999/xlink" width="1106px" height="199px" viewBox="0 0 1108 199" version="1.1">
<g id="surface1">
<path style=" stroke:none;fill-rule:nonzero;fill:rgb(90.588236%,20.784314%,17.254902%);fill-opacity:1;" d="M 67.3125 148.019531 C 67.3125 155.75 61.050781 162.019531 53.324219 162.019531 C 45.597656 162.019531 39.335938 155.75 39.335938 148.019531 C 39.335938 140.289062 45.597656 134.023438 53.324219 134.023438 C 61.050781 134.023438 67.3125 140.289062 67.3125 148.019531 "/>
<path style=" stroke:none;fill-rule:nonzero;fill:rgb(90.588236%,20.784314%,17.254902%);fill-opacity:1;" d="M 189.339844 133.453125 C 180.179688 69.726562 130.148438 19.664062 66.460938 10.5 C 59.050781 14.433594 52.214844 19.367188 46.140625 25.160156 L 46.140625 38.683594 C 109.613281 38.734375 161.066406 90.183594 161.171875 153.695312 L 174.6875 153.695312 C 180.425781 147.609375 185.347656 140.804688 189.339844 133.453125 "/>
<path style=" stroke:none;fill-rule:nonzero;fill:rgb(90.588236%,20.784314%,17.254902%);fill-opacity:1;" d="M 200.304688 90.988281 C 200.304688 66.773438 190.660156 43.558594 173.503906 26.480469 C 156.347656 9.40625 133.097656 -0.125 108.902344 0 C 105.6875 0 102.570312 0 99.449219 0.472656 L 97.371094 6.527344 C 142.199219 22.246094 177.460938 57.496094 193.214844 102.335938 L 199.261719 100.160156 C 199.261719 97.136719 199.832031 94.109375 199.832031 90.703125 "/>
<path style=" stroke:none;fill-rule:nonzero;fill:rgb(90.588236%,20.784314%,17.254902%);fill-opacity:1;" d="M 109.941406 198.621094 C 50.40625 198.621094 2.070312 150.464844 1.808594 90.894531 C 1.722656 62.179688 13.125 34.625 33.472656 14.375 L 39.617188 20.144531 C 20.707031 38.902344 10.070312 64.441406 10.070312 91.082031 C 10.070312 117.726562 20.707031 143.261719 39.617188 162.019531 C 58.359375 180.941406 83.882812 191.585938 110.507812 191.585938 C 137.132812 191.585938 162.65625 180.941406 181.398438 162.019531 L 187.164062 167.789062 C 166.613281 188.035156 138.777344 199.148438 109.941406 198.621094 "/>
<path style=" stroke:none;fill-rule:nonzero;fill:rgb(90.588236%,20.784314%,17.254902%);fill-opacity:1;" d="M 108.710938 159.9375 C 110.695312 138.292969 101.367188 117.15625 84.042969 104.039062 C 74.914062 96.847656 63.933594 92.386719 52.378906 91.175781 C 49.378906 90.785156 47.195312 88.144531 47.367188 85.125 C 47.488281 83.625 48.207031 82.234375 49.363281 81.273438 C 50.519531 80.3125 52.015625 79.859375 53.511719 80.015625 C 94.125 84.242188 123.691406 120.507812 119.675781 161.167969 C 119.289062 165.496094 118.464844 169.773438 117.21875 173.9375 L 133.664062 178.570312 C 138.535156 177.167969 143.277344 175.367188 147.84375 173.179688 C 149.066406 166.789062 149.667969 160.296875 149.640625 153.789062 C 149.582031 102.472656 112.140625 58.863281 61.453125 51.074219 C 55.984375 50.070312 50.378906 50.070312 44.910156 51.074219 C 37.988281 52.902344 31.769531 56.757812 27.046875 62.140625 C 19.3125 71.101562 16.570312 83.339844 19.742188 94.746094 C 22.917969 106.152344 31.582031 115.214844 42.832031 118.890625 C 45.761719 119.589844 48.726562 120.125 51.714844 120.496094 C 67.65625 123.21875 79.316406 137.042969 79.316406 153.222656 C 79.316406 159.566406 77.476562 165.777344 74.023438 171.097656 L 85.367188 178.382812 C 90.925781 179.90625 96.625 180.859375 102.378906 181.21875 C 105.769531 174.410156 107.882812 167.035156 108.617188 159.464844 "/>
<path style=" stroke:none;fill-rule:nonzero;fill:rgb(20%,20%,20%);fill-opacity:1;" d="M 986.527344 29.980469 L 1007.417969 29.980469 L 1007.417969 169.015625 L 986.527344 169.015625 Z M 986.527344 29.980469 "/>
<path style=" stroke:none;fill-rule:nonzero;fill:rgb(20%,20%,20%);fill-opacity:1;" d="M 648.238281 110.945312 C 657.066406 106.890625 662.535156 97.859375 662.039062 88.148438 L 662.039062 54.953125 C 662.234375 48.046875 659.566406 41.371094 654.664062 36.507812 C 650.101562 32.242188 644.085938 29.875 637.839844 29.886719 L 577.535156 29.886719 L 577.535156 169.207031 L 598.519531 169.207031 L 598.519531 113.5 L 619.976562 113.5 C 629.527344 113.417969 637.636719 120.476562 638.878906 129.957031 L 647.101562 169.394531 L 669.976562 169.394531 L 661.09375 132.414062 C 660.222656 123.824219 655.492188 116.09375 648.238281 111.417969 M 598.519531 49.5625 L 634.4375 49.5625 C 636.40625 49.652344 638.25 50.558594 639.527344 52.066406 C 640.800781 53.574219 641.386719 55.546875 641.148438 57.503906 L 641.148438 85.878906 C 641.386719 87.839844 640.800781 89.808594 639.527344 91.316406 C 638.25 92.824219 636.40625 93.734375 634.4375 93.824219 L 598.519531 93.824219 Z M 598.519531 49.5625 "/>
<path style=" stroke:none;fill-rule:nonzero;fill:rgb(20%,20%,20%);fill-opacity:1;" d="M 276.769531 36.601562 C 271.777344 41.597656 269.101562 48.460938 269.398438 55.519531 L 269.398438 144.425781 C 269.199219 151.328125 271.871094 158.007812 276.769531 162.871094 C 281.34375 167.121094 287.355469 169.484375 293.59375 169.492188 L 350.308594 169.492188 L 350.308594 149.628906 L 297.375 149.628906 C 295.398438 149.535156 293.546875 148.628906 292.257812 147.125 C 290.972656 145.621094 290.359375 143.652344 290.570312 141.683594 L 290.570312 105.929688 L 342.085938 105.929688 L 342.085938 86.449219 L 290.285156 86.449219 L 290.285156 57.503906 C 290.078125 55.535156 290.6875 53.566406 291.976562 52.0625 C 293.265625 50.558594 295.113281 49.652344 297.09375 49.5625 L 350.023438 49.5625 L 350.023438 29.980469 L 293.3125 29.980469 C 287.078125 30.027344 281.082031 32.386719 276.488281 36.601562 "/>
<path style=" stroke:none;fill-rule:nonzero;fill:rgb(20%,20%,20%);fill-opacity:1;" d="M 1053.257812 49.5625 L 1106.191406 49.5625 L 1106.191406 29.980469 L 1049.476562 29.980469 C 1043.242188 30.027344 1037.246094 32.386719 1032.652344 36.601562 C 1027.699219 41.625 1025.03125 48.46875 1025.28125 55.519531 L 1025.28125 169.019531 L 1046.167969 169.019531 L 1046.167969 105.929688 L 1098.25 105.929688 L 1098.25 86.449219 L 1046.074219 86.449219 L 1046.074219 57.503906 C 1045.863281 55.535156 1046.476562 53.566406 1047.765625 52.0625 C 1049.050781 50.558594 1050.902344 49.652344 1052.878906 49.5625 "/>
<path style=" stroke:none;fill-rule:nonzero;fill:rgb(20%,20%,20%);fill-opacity:1;" d="M 429.042969 86.449219 L 396.621094 86.449219 C 392.574219 86.34375 389.34375 83.03125 389.34375 78.976562 L 389.34375 57.503906 C 389.105469 55.546875 389.695312 53.574219 390.96875 52.066406 C 392.242188 50.558594 394.085938 49.652344 396.054688 49.5625 L 447.949219 49.5625 L 447.949219 29.980469 L 392.464844 29.980469 C 386.230469 30.027344 380.234375 32.386719 375.640625 36.601562 C 370.644531 41.597656 367.972656 48.460938 368.265625 55.519531 L 368.265625 83.988281 C 368.265625 97.480469 379.167969 108.433594 392.652344 108.484375 L 425.167969 108.484375 C 429.292969 108.484375 432.636719 111.832031 432.636719 115.957031 L 432.636719 141.871094 C 432.847656 143.84375 432.234375 145.8125 430.945312 147.316406 C 429.660156 148.820312 427.808594 149.722656 425.828125 149.816406 L 368.265625 149.816406 L 368.265625 169.394531 L 429.328125 169.394531 C 435.921875 169.429688 442.238281 166.757812 446.8125 162.003906 C 451.382812 157.25 453.808594 150.828125 453.523438 144.238281 L 453.523438 111.132812 C 453.601562 104.597656 451.050781 98.300781 446.449219 93.660156 C 441.847656 89.019531 435.578125 86.421875 429.042969 86.449219 "/>
<path style=" stroke:none;fill-rule:nonzero;fill:rgb(20%,20%,20%);fill-opacity:1;" d="M 688.503906 36.601562 C 683.507812 41.597656 680.835938 48.460938 681.128906 55.519531 L 681.128906 144.425781 C 680.933594 151.328125 683.601562 158.007812 688.503906 162.871094 C 693.078125 167.121094 699.085938 169.484375 705.328125 169.492188 L 762.039062 169.492188 L 762.039062 149.628906 L 709.109375 149.628906 C 707.136719 149.539062 705.292969 148.628906 704.019531 147.121094 C 702.746094 145.613281 702.160156 143.644531 702.398438 141.683594 L 702.398438 105.929688 L 754.480469 105.929688 L 754.480469 86.449219 L 702.019531 86.449219 L 702.019531 57.503906 C 701.78125 55.546875 702.367188 53.574219 703.640625 52.066406 C 704.914062 50.558594 706.761719 49.652344 708.730469 49.5625 L 761.664062 49.5625 L 761.664062 29.980469 L 704.949219 29.980469 C 698.714844 30.027344 692.71875 32.386719 688.125 36.601562 "/>
<path style=" stroke:none;fill-rule:nonzero;fill:rgb(20%,20%,20%);fill-opacity:1;" d="M 840.777344 86.449219 L 808.355469 86.449219 C 804.230469 86.449219 800.886719 83.101562 800.886719 78.976562 L 800.886719 57.503906 C 800.648438 55.546875 801.238281 53.574219 802.511719 52.066406 C 803.785156 50.558594 805.628906 49.652344 807.597656 49.5625 L 859.679688 49.5625 L 859.679688 29.980469 L 804.101562 29.980469 C 797.898438 30.03125 791.933594 32.390625 787.371094 36.601562 C 782.378906 41.597656 779.703125 48.460938 780 55.519531 L 780 83.988281 C 779.972656 90.476562 782.53125 96.707031 787.109375 101.304688 C 791.683594 105.902344 797.902344 108.484375 804.386719 108.484375 L 836.804688 108.484375 C 840.929688 108.484375 844.273438 111.832031 844.273438 115.957031 L 844.273438 141.871094 C 844.511719 143.832031 843.925781 145.804688 842.652344 147.308594 C 841.378906 148.816406 839.535156 149.726562 837.5625 149.816406 L 780 149.816406 L 780 169.394531 L 841.058594 169.394531 C 847.285156 169.359375 853.265625 166.957031 857.789062 162.679688 C 862.859375 157.726562 865.574219 150.847656 865.257812 143.765625 L 865.257812 110.660156 C 865.257812 104.171875 862.675781 97.953125 858.082031 93.371094 C 853.488281 88.792969 847.261719 86.234375 840.777344 86.257812 "/>
<path style=" stroke:none;fill-rule:nonzero;fill:rgb(20%,20%,20%);fill-opacity:1;" d="M 943.238281 86.449219 L 910.816406 86.449219 C 906.691406 86.449219 903.347656 83.101562 903.347656 78.976562 L 903.347656 57.503906 C 903.109375 55.546875 903.699219 53.574219 904.972656 52.066406 C 906.246094 50.558594 908.089844 49.652344 910.058594 49.5625 L 962.140625 49.5625 L 962.140625 29.980469 L 906.65625 29.980469 C 900.421875 30.027344 894.425781 32.386719 889.832031 36.601562 C 884.839844 41.597656 882.164062 48.460938 882.460938 55.519531 L 882.460938 83.988281 C 882.460938 97.480469 893.363281 108.433594 906.847656 108.484375 L 939.363281 108.484375 C 943.484375 108.484375 946.828125 111.832031 946.828125 115.957031 L 946.828125 141.871094 C 947.039062 143.84375 946.429688 145.8125 945.140625 147.316406 C 943.851562 148.820312 942 149.722656 940.023438 149.816406 L 882.460938 149.816406 L 882.460938 169.394531 L 943.519531 169.394531 C 950.113281 169.429688 956.433594 166.757812 961.003906 162.003906 C 965.574219 157.25 968.003906 150.828125 967.71875 144.238281 L 967.71875 111.132812 C 967.792969 104.597656 965.246094 98.300781 960.644531 93.660156 C 956.039062 89.019531 949.769531 86.421875 943.238281 86.449219 "/>
<path style=" stroke:none;fill-rule:nonzero;fill:rgb(20%,20%,20%);fill-opacity:1;" d="M 535.664062 29.886719 L 472.429688 29.886719 L 472.429688 169.207031 L 493.316406 169.207031 L 493.316406 115.105469 L 535.664062 115.105469 C 541.882812 115.121094 547.867188 112.753906 552.394531 108.484375 C 557.460938 103.53125 560.179688 96.652344 559.859375 89.570312 L 559.859375 54.953125 C 560.019531 48.035156 557.320312 41.363281 552.394531 36.507812 C 547.867188 32.242188 541.882812 29.871094 535.664062 29.886719 M 538.875 87.675781 C 539.117188 89.636719 538.527344 91.609375 537.253906 93.113281 C 535.980469 94.621094 534.136719 95.53125 532.164062 95.621094 L 493.316406 95.621094 L 493.316406 49.371094 L 532.164062 49.371094 C 534.136719 49.460938 535.980469 50.371094 537.253906 51.878906 C 538.527344 53.386719 539.117188 55.355469 538.875 57.316406 Z M 538.875 87.675781 "/>
</g>
</svg>
