<svg xmlns="http://www.w3.org/2000/svg" viewBox="0 0 517 199" width="517" height="199">
	<style>
		tspan { white-space:pre }
		.shp0 { fill: #62aeb2 } 
		.shp1 { fill: #e47128 } 
		.shp2 { fill: #e5ad24 } 
		.shp3 { fill: #00878f } 
	</style>
	<g >
		<g >
			<path class="shp0" d="M132.23,48.9l0.87,-1.61c-8.09,-4.31 -16.4,-7.13 -24.77,-8.33c-3.47,-0.49 -6.96,-0.74 -10.38,-0.74c-27.6,0 -52.29,16.6 -61.44,41.31l8.88,3.29c7.78,-21.01 28.9,-35.12 52.56,-35.12c2.98,0 6.02,0.22 9.04,0.65c16.04,2.29 31.45,11.04 45.8,26l5.23,-5.02c-7.06,-7.55 -15.69,-14.95 -25.8,-20.42z" />
			<path class="shp0" d="M70.13,153.79c-21.9,-10.18 -35.51,-30.82 -35.51,-53.85c0,-11.47 3.36,-22.56 9.72,-32.09c2.43,-3.64 5.3,-7.06 8.53,-10.15l-4.37,-4.56c-3.57,3.41 -6.73,7.19 -9.42,11.21c-7.05,10.57 -10.78,22.87 -10.78,35.59c0,25.14 15.37,48.52 39.16,59.58z" />
			<path class="shp0" d="M183.35,107.69l-2.74,-6.39c-0.25,-0.49 -0.59,-1.15 -1.01,-1.93c-4.8,9.08 -30.02,53.42 -71.5,59.34c-3.39,0.48 -6.88,1.59 -10.18,1.59c-9.66,0 -18.93,-2.04 -27.54,-6.04l-3.16,5.79c9.61,4.47 19.94,6.74 30.7,6.74c3.65,0 7.4,-0.27 11.13,-0.8c40.02,-5.72 65.28,-42.32 74.58,-58.42z" />
			<path class="shp1" d="M192.13,138.55c-8.11,11.03 -17.07,20.57 -26.67,28.37l2.32,2.85c9.5,-7.71 18.37,-17.07 26.44,-27.85c16.51,22.52 43.98,49.24 83.79,54.93l0.94,-6.6c-40.7,-5.81 -67.95,-34.59 -84.16,-59.07c-0.76,-1.16 -2.66,7.37 -2.66,7.37z" />
			<path class="shp2" d="M298.48,166c-5.26,0.34 -10.6,0.14 -15.97,-0.62c-12.23,-1.75 -24.08,-6.63 -35.22,-14.51l-3.46,4.9c11.93,8.44 24.66,13.67 37.84,15.55c3.97,0.57 7.97,0.85 11.89,0.85c1.65,0 3.29,-0.06 4.93,-0.16v-6.01z" />
			<path class="shp1" d="M186.52,106.33l-3.17,1.36l-2.74,-6.39c-2.05,-4.04 -9.74,-18.26 -22.58,-31.98l-5.23,5.02c11.27,11.74 18.04,23.38 20.42,27.84l9.61,16.77l8.22,-4.71z" />
			<path class="shp0" d="M293.55,160.66v-7.5c-3.05,0 -6.14,-0.22 -9.2,-0.66c-40.05,-5.72 -64.25,-49.36 -66.88,-54.32l-6.62,3.51c4.59,8.65 29.63,52.12 72.44,58.23c3.41,0.49 6.86,0.74 10.26,0.74z" />
			<path class="shp3" d="M361.4,80.71c-3.28,-10.66 -9.39,-20.48 -17.66,-28.39c-10.76,-10.29 -24.41,-16.87 -39.46,-19.02l-1.21,8.49c13.27,1.89 25.28,7.68 34.74,16.73c7.22,6.91 12.54,15.46 15.39,24.72z" />
			<path class="shp3" d="M282.52,34.55c3.66,-0.52 7.36,-0.79 11,-0.79c18.73,0 36.27,6.9 49.37,19.44l4.24,-4.43c-14.25,-13.63 -33.28,-21.14 -53.6,-21.14c-3.93,0 -7.93,0.29 -11.87,0.85c-16.69,2.38 -32.53,10.07 -47.09,22.86l4.04,4.6c13.65,-11.99 28.42,-19.19 43.91,-21.39z" />
			<path class="shp2" d="M212.54,105c1.99,-4.18 12.87,-25.88 31.81,-42.51l8.84,-7.76l-15.53,-17.69l-8.84,7.76c-21.85,19.18 -34.26,43.19 -37.54,50.08l-5.06,10.63l21.25,10.11z" />
			<path class="shp3" d="M34.31,125.36c-3.51,-8.02 -5.3,-16.57 -5.3,-25.43c0,-17.53 7.09,-33.97 19.98,-46.29c4.53,-4.33 9.64,-8.02 15.19,-10.98l-3.45,-6.49c-6.14,3.27 -11.8,7.36 -16.81,12.15c-14.35,13.72 -22.25,32.05 -22.25,51.6c0,9.87 1.99,19.42 5.92,28.38z" />
			<path class="shp2" d="M97.96,40.04c3.36,0 6.76,0.24 10.12,0.72c8.21,1.17 16.34,3.91 24.15,8.14l3.05,-5.65c-8.49,-4.59 -17.33,-7.56 -26.3,-8.85c-3.66,-0.52 -7.37,-0.79 -11.03,-0.79c-18.78,0 -36.35,6.92 -49.49,19.48l4.44,4.64c11.94,-11.41 27.94,-17.7 45.05,-17.7z" />
			<path class="shp2" d="M35.1,39.12l-2.71,-2.83c-17.67,16.9 -27.39,39.5 -27.39,63.64h3.92c0,-23.07 9.3,-44.66 26.18,-60.81z" />
			<path class="shp3" d="M167.38,28.81c-16.59,-13.26 -34.8,-21.38 -54.15,-24.15c-5.07,-0.72 -10.2,-1.09 -15.27,-1.09c-20.09,0 -39.39,5.66 -55.81,16.36l2.86,4.38c15.57,-10.15 33.88,-15.51 52.95,-15.51c4.82,0 9.71,0.35 14.53,1.04c18.41,2.63 35.78,10.39 51.63,23.05z" />
			<path class="shp3" d="M279.51,13.5l-1.78,-12.5c-42.12,6.01 -70.64,35.16 -87.15,58.56l10.32,7.28c15.07,-21.37 40.95,-47.96 78.61,-53.34z" />
			<path class="shp0" d="M281,23.91c4.16,-0.59 8.37,-0.9 12.52,-0.9c10.72,0 21.09,1.95 30.82,5.8l3.36,-8.51c-10.81,-4.27 -22.31,-6.44 -34.19,-6.44c-4.58,0 -9.23,0.33 -13.81,0.99c-35.23,5.03 -59.85,28.86 -74.29,47.97l7.3,5.52c13.41,-17.74 36.14,-39.85 68.29,-44.43z" />
			<path class="shp0" d="M200.66,76.69c14.91,-23.46 40.76,-52.38 79.6,-57.92c4.4,-0.63 8.86,-0.95 13.25,-0.95v-11.03c-4.91,0 -9.9,0.36 -14.81,1.06c-45.52,6.49 -74.44,42.48 -87.63,63.36l-0.26,0.41l-3.04,7.46l10.22,4.16z" />
			<path class="shp0" d="M203.9,66.98l-5.03,-6.16c-9.19,-13 -19.51,-24.12 -30.67,-33.04l-4.9,6.13c10.62,8.49 20.45,19.1 29.23,31.55l5.29,6.48z" />
			<path class="shp1" d="M363.76,31.39c-18.75,-17.94 -43.69,-27.82 -70.24,-27.82c-5.06,0 -10.2,0.37 -15.27,1.09l0.74,5.18c4.82,-0.69 9.71,-1.04 14.53,-1.04c25.19,0 48.86,9.36 66.62,26.37z" />
			<path class="shp3" d="M201.97,102.52c0.26,-0.63 26.68,-62.76 80.2,-70.4l-1.9,-13.35c-61.04,8.71 -89.56,75.72 -90.75,78.56c-0.26,0.63 -26.85,62.78 -80.21,70.4l1.91,13.35c61.02,-8.71 89.57,-75.71 90.75,-78.56z" />
			<path class="shp3" d="M55.15,167.59l5.85,-10.07c14.36,8.34 31.01,11.46 48.14,9.01l1.65,11.53c11.16,-1.59 22.06,-5.41 32.4,-11.35l-9.77,-17c-8.18,4.7 -16.73,7.71 -25.41,8.95c-3.37,0.48 -6.76,0.72 -10.08,0.72c-16.98,0 -32.85,-6.24 -44.7,-17.58c-5.74,-5.49 -10.21,-11.85 -13.3,-18.89l-16.83,7.37c4.02,9.17 9.88,17.58 17.42,24.8l-0.85,0.89c4.72,4.51 9.91,8.4 15.48,11.64z" />
			<path class="shp3" d="M111.51,183.13c46.39,-6.62 74.16,-45.51 86.58,-68.1l3.21,-7.56l-4.93,-2.08l-3.04,7.19c-11.98,21.73 -38.58,58.97 -82.58,65.26c-4.27,0.61 -8.59,0.92 -12.83,0.92c-21.99,0 -42.63,-8.15 -58.1,-22.96l-3.7,3.87c16.47,15.76 38.42,24.44 61.81,24.44c4.49,0 9.06,-0.33 13.58,-0.98z" />
			<path class="shp3" d="M113.55,197.46c20.13,-2.87 39.02,-11.39 56.15,-25.31l-6.18,-7.61c-15.74,12.78 -33.01,20.59 -51.36,23.22c-4.73,0.68 -9.52,1.02 -14.24,1.02c-24.59,0 -47.69,-9.14 -65.03,-25.74l-6.78,7.08c19.17,18.35 44.68,28.46 71.81,28.46c5.18,0 10.44,-0.38 15.63,-1.12z" />
			<path class="shp2" d="M199.37,128.03l0.09,-0.15c0.18,-0.32 4.54,-7.86 6.25,-11.11l-7.59,-3.99c-1.55,2.94 -5.58,9.95 -6.04,10.74c-14.99,23.71 -41.15,53.13 -80.68,58.77l1.21,8.49c42.81,-6.11 70.82,-37.5 86.77,-62.75z" />
			<path class="shp0" d="M58.53,161.76c-22.7,-13.18 -36.26,-36.29 -36.26,-61.82c0,-3.71 0.29,-7.44 0.87,-11.07l-6.05,-0.96c-0.63,3.94 -0.94,7.99 -0.94,12.03c0,27.74 14.69,52.83 39.31,67.12z" />
			<path class="shp1" d="M109.43,31.27c4.49,0.64 8.96,1.69 13.3,3.11l3.67,-11.18c-4.99,-1.64 -10.14,-2.84 -15.31,-3.58c-22.95,-3.27 -45.6,2.09 -63.8,15.11c-17.91,12.81 -29.63,31.54 -32.99,52.73l11.62,1.84c6.09,-38.35 42.77,-63.83 83.5,-58.03z" />
			<path class="shp2" d="M34.58,161.27c-9.18,-8.78 -16.12,-19.07 -20.63,-30.58l-13.69,5.37c5.3,13.52 13.43,25.58 24.16,35.84z" />
			<path class="shp0" d="M112.6,190.79l-1.22,-8.49c-4.48,0.64 -9.01,0.97 -13.47,0.97c-23.17,0 -44.91,-8.6 -61.22,-24.21c-14.75,-14.12 -23.71,-32.89 -25.22,-52.87l-0.24,-6.41l-8.57,0.32l0.24,6.49l0.01,0.16c1.65,22.12 11.54,42.9 27.85,58.51c17.92,17.14 41.76,26.59 67.16,26.59c4.85,0 9.79,-0.35 14.68,-1.05z" />
			<path class="shp2" d="M139.63,160.52c31.66,-18.17 49.23,-52.69 52.44,-59.43l1.15,-2.42l-4.83,-2.3l-1.15,2.42c-3.08,6.48 -20,39.71 -50.27,57.08l-2.32,1.33l2.66,4.64z" />
			<path class="shp3" d="M204.19,96.42c-0.27,-0.64 -2.18,-5.15 -5.81,-11.73l1.36,-0.75c-12.63,-22.91 -40.85,-62.36 -87.97,-69.08c-4.58,-0.65 -9.23,-0.99 -13.82,-0.99v9.15c4.15,0 8.37,0.3 12.53,0.9c5.09,0.73 9.94,1.89 14.57,3.4l-3.35,10.18c43.5,14.31 65.37,65.45 65.59,65.96c1.21,2.9 30.25,71.12 92.63,80.02l2.59,-18.12c-51.98,-7.42 -78.06,-68.33 -78.32,-68.93z" />
			<path class="shp2" d="M348.87,41.25c-18.35,-15.92 -43.19,-23 -68.17,-19.44l1.04,7.28c22.87,-3.26 45.58,3.2 62.31,17.72c15.58,13.51 24.51,32.88 24.51,53.13h7.35c0,-22.38 -9.86,-43.77 -27.05,-58.68z" />
			<path class="shp2" d="M88.65,130.79h19.89v-61.7h-19.89z" />
			<path class="shp3" d="M67.74,109.89h61.69v-19.89h-61.69z" />
			<path class="shp0" d="M394.57,99.93c0,-26.38 -10.61,-51.07 -29.89,-69.51l-5.46,5.7c17.7,16.94 27.45,39.6 27.45,63.8c0,2.77 -0.13,5.55 -0.38,8.26l7.86,0.73c0.27,-2.95 0.41,-5.98 0.41,-8.99z" />
			<path class="shp3" d="M368.46,99.83c0,-19.26 -7.78,-37.31 -21.92,-50.84l-3.61,3.78c13.09,12.53 20.3,29.24 20.3,47.06c0,4.26 -0.42,8.52 -1.24,12.67l5.13,1.02c0.89,-4.48 1.34,-9.09 1.34,-13.69z" />
			<path class="shp1" d="M359.98,99.93c0,-34.8 -29.82,-63.11 -66.46,-63.11c-3.48,0 -7.04,0.25 -10.57,0.75c-0.95,0.14 -1.89,0.29 -2.83,0.46l2.21,12.05c0.78,-0.14 1.56,-0.27 2.34,-0.38c2.96,-0.42 5.93,-0.63 8.85,-0.63c29.89,0 54.21,22.81 54.21,50.85c0,4 -0.5,7.98 -1.47,11.81l11.88,3.03c1.23,-4.82 1.85,-9.81 1.85,-14.84z" />
			<path class="shp3" d="M259.94,51.85l-1.41,-2.55c-28.14,15.6 -44.61,46.13 -47.62,52.09l-2.98,6.06l-3.15,-1.55l-1.3,2.89l11.18,5.02l5.01,-11.16c2.95,-5.46 25.84,-45.77 62.67,-52.55l-1.11,-6.02c-7.23,1.34 -14.38,3.94 -21.29,7.77z" />
			<path class="shp0" d="M296.2,186.91l-0.26,-11.03c-4.89,0.12 -9.86,-0.15 -14.81,-0.86c-18.53,-2.65 -35.83,-11.36 -51.42,-25.88l-7.52,8.07c17.27,16.09 36.57,25.76 57.38,28.73c4.66,0.67 9.37,1 13.98,1c0.88,0 1.76,-0.01 2.65,-0.03z" />
		</g>
	</g>
	<g >
		<path fill="#00878f" d="M322.95 136.53L331.55 158L326.83 158L324.96 153.12L316.37 153.12L314.6 158L310 158L318.36 136.53L322.95 136.53ZM317.71 149.5L323.56 149.5L320.61 141.54L317.71 149.5ZM338.2 158L333.86 158L333.86 136.53L342.99 136.53Q346.43 136.53 347.98 137.11Q349.55 137.68 350.49 139.16Q351.43 140.64 351.43 142.55Q351.43 144.96 350 146.54Q348.58 148.11 345.76 148.52Q347.16 149.34 348.07 150.32Q348.99 151.31 350.55 153.81L353.17 158L347.98 158L344.85 153.33Q343.18 150.82 342.56 150.18Q341.95 149.52 341.26 149.28Q340.57 149.04 339.08 149.04L338.2 149.04L338.2 158ZM338.2 140.16L338.2 145.61L341.41 145.61Q344.53 145.61 345.3 145.34Q346.08 145.08 346.52 144.44Q346.96 143.79 346.96 142.82Q346.96 141.74 346.37 141.08Q345.8 140.41 344.75 140.23Q344.22 140.16 341.58 140.16L338.2 140.16ZM355.5 158L355.5 136.53L363.42 136.53Q366.1 136.53 367.51 136.94Q369.4 137.49 370.75 138.91Q372.09 140.33 372.8 142.4Q373.5 144.45 373.5 147.47Q373.5 150.12 372.84 152.04Q372.04 154.38 370.54 155.83Q369.41 156.93 367.5 157.55Q366.06 158 363.66 158L355.5 158ZM361.78 140.16L359.83 140.16L359.83 154.38L363.07 154.38Q364.89 154.38 365.69 154.18Q366.75 153.91 367.44 153.28Q368.14 152.65 368.58 151.22Q369.02 149.77 369.02 147.28Q369.02 144.79 368.58 143.45Q368.14 142.12 367.35 141.37Q366.56 140.63 365.34 140.36Q364.43 140.16 361.78 140.16ZM377.15 147.98L377.15 136.53L381.48 136.53L381.48 148.16Q381.48 150.92 381.65 151.75Q381.92 153.06 382.96 153.87Q384.02 154.66 385.83 154.66Q387.68 154.66 388.62 153.91Q389.56 153.15 389.75 152.05Q389.94 150.95 389.94 148.41L389.94 136.53L394.27 136.53L394.27 147.8Q394.27 151.67 393.92 153.27Q393.57 154.87 392.62 155.96Q391.68 157.06 390.1 157.72Q388.52 158.37 385.97 158.37Q382.89 158.37 381.29 157.66Q379.71 156.95 378.79 155.82Q377.87 154.67 377.57 153.43Q377.15 151.58 377.15 147.98ZM403.05 158L398.71 158L398.71 136.53L403.05 136.53L403.05 158ZM411.25 158L407.22 158L407.22 136.53L411.44 136.53L420.23 150.87L420.23 136.53L424.26 136.53L424.26 158L419.91 158L411.25 144L411.25 158ZM427.96 147.39Q427.96 144.11 428.95 141.89Q429.68 140.25 430.94 138.94Q432.21 137.64 433.72 137.01Q435.73 136.16 438.35 136.16Q443.1 136.16 445.94 139.1Q448.79 142.05 448.79 147.29Q448.79 152.49 445.97 155.44Q443.14 158.37 438.41 158.37Q433.62 158.37 430.79 155.45Q427.96 152.52 427.96 147.39ZM432.43 147.25Q432.43 150.9 434.12 152.79Q435.8 154.66 438.39 154.66Q440.99 154.66 442.64 152.8Q444.31 150.92 444.31 147.19Q444.31 143.5 442.69 141.68Q441.07 139.87 438.39 139.87Q435.71 139.87 434.07 141.71Q432.43 143.54 432.43 147.25Z" />
		<path fill="#e47128" d="M326.14 183.1L321.17 183.1L321.17 179.49L330.52 179.49L330.52 188.04Q329.16 189.36 326.56 190.37Q323.99 191.37 321.33 191.37Q317.96 191.37 315.46 189.96Q312.96 188.54 311.7 185.92Q310.44 183.28 310.44 180.19Q310.44 176.83 311.84 174.23Q313.25 171.62 315.96 170.23Q318.02 169.16 321.1 169.16Q325.1 169.16 327.34 170.84Q329.6 172.51 330.24 175.47L325.93 176.28Q325.48 174.7 324.22 173.79Q322.97 172.87 321.1 172.87Q318.26 172.87 316.57 174.67Q314.9 176.47 314.9 180.01Q314.9 183.84 316.6 185.76Q318.3 187.66 321.06 187.66Q322.42 187.66 323.78 187.13Q325.16 186.59 326.14 185.83L326.14 183.1ZM350.85 191L334.52 191L334.52 169.53L350.44 169.53L350.44 173.16L338.85 173.16L338.85 177.92L349.63 177.92L349.63 181.54L338.85 181.54L338.85 187.38L350.85 187.38L350.85 191ZM363.7 191L359.36 191L359.36 173.16L352.99 173.16L352.99 169.53L370.05 169.53L370.05 173.16L363.7 173.16L363.7 191ZM380.09 184.01L384.31 183.6Q384.69 185.73 385.85 186.72Q387.02 187.72 389 187.72Q391.09 187.72 392.14 186.84Q393.21 185.95 393.21 184.76Q393.21 184 392.76 183.47Q392.32 182.93 391.21 182.53Q390.45 182.27 387.74 181.6Q384.25 180.73 382.84 179.47Q380.87 177.7 380.87 175.15Q380.87 173.51 381.79 172.09Q382.73 170.65 384.47 169.91Q386.23 169.16 388.7 169.16Q392.75 169.16 394.78 170.93Q396.83 172.7 396.93 175.66L392.6 175.85Q392.32 174.2 391.4 173.48Q390.49 172.75 388.66 172.75Q386.77 172.75 385.7 173.52Q385.01 174.02 385.01 174.86Q385.01 175.62 385.66 176.16Q386.48 176.85 389.64 177.6Q392.8 178.34 394.31 179.15Q395.84 179.94 396.69 181.33Q397.55 182.71 397.55 184.75Q397.55 186.59 396.52 188.2Q395.5 189.81 393.62 190.6Q391.75 191.38 388.95 191.38Q384.88 191.38 382.7 189.51Q380.51 187.62 380.09 184.01ZM410.37 191L406.03 191L406.03 173.16L399.66 173.16L399.66 169.53L416.72 169.53L416.72 173.16L410.37 173.16L410.37 191ZM428.06 169.53L436.66 191L431.94 191L430.07 186.12L421.49 186.12L419.71 191L415.11 191L423.48 169.53L428.06 169.53ZM422.82 182.5L428.68 182.5L425.72 174.54L422.82 182.5ZM443.31 191L438.98 191L438.98 169.53L448.1 169.53Q451.54 169.53 453.1 170.11Q454.66 170.68 455.6 172.16Q456.54 173.64 456.54 175.55Q456.54 177.96 455.12 179.54Q453.7 181.11 450.87 181.52Q452.28 182.34 453.18 183.32Q454.11 184.31 455.66 186.81L458.28 191L453.1 191L449.96 186.33Q448.29 183.82 447.68 183.18Q447.06 182.52 446.37 182.28Q445.68 182.04 444.19 182.04L443.31 182.04L443.31 191ZM443.31 173.16L443.31 178.61L446.52 178.61Q449.64 178.61 450.42 178.34Q451.19 178.08 451.63 177.44Q452.07 176.79 452.07 175.82Q452.07 174.74 451.49 174.08Q450.91 173.41 449.86 173.23Q449.33 173.16 446.7 173.16L443.31 173.16ZM469.8 191L465.46 191L465.46 173.16L459.09 173.16L459.09 169.53L476.15 169.53L476.15 173.16L469.8 173.16L469.8 191ZM495.28 191L478.95 191L478.95 169.53L494.87 169.53L494.87 173.16L483.29 173.16L483.29 177.92L494.07 177.92L494.07 181.54L483.29 181.54L483.29 187.38L495.28 187.38L495.28 191ZM498.95 191L498.95 169.53L506.87 169.53Q509.55 169.53 510.96 169.94Q512.85 170.49 514.2 171.91Q515.54 173.33 516.25 175.4Q516.95 177.45 516.95 180.47Q516.95 183.12 516.29 185.04Q515.48 187.38 513.99 188.83Q512.86 189.93 510.94 190.55Q509.51 191 507.11 191L498.95 191ZM505.23 173.16L503.28 173.16L503.28 187.38L506.52 187.38Q508.34 187.38 509.14 187.18Q510.2 186.91 510.88 186.28Q511.59 185.65 512.03 184.22Q512.47 182.77 512.47 180.28Q512.47 177.79 512.03 176.45Q511.59 175.12 510.8 174.37Q510.01 173.63 508.79 173.36Q507.88 173.16 505.23 173.16Z" />
	</g>
</svg>